<svg xmlns="http://www.w3.org/2000/svg" version="1.1" xmlns:xlink="http://www.w3.org/1999/xlink" xmlns:svgjs="http://svgjs.dev/svgjs" width="1000" height="1000" viewBox="0 0 1000 1000"><rect width="1000" height="1000" fill="#ffffff"></rect><g transform="matrix(0.7,0,0,0.7,149.57575757575756,282.1265587044535)"><svg viewBox="0 0 396 247" data-background-color="#ffffff" preserveAspectRatio="xMidYMid meet" height="623" width="1000" xmlns="http://www.w3.org/2000/svg" xmlns:xlink="http://www.w3.org/1999/xlink"><g id="tight-bounds" transform="matrix(1,0,0,1,0.2400000000000091,-0.09999999999999432)"><svg viewBox="0 0 395.52 247.2" height="247.2" width="395.52"><g><svg></svg></g><g><svg viewBox="0 0 395.52 247.2" height="247.2" width="395.52"><g transform="matrix(1,0,0,1,39.55199999999999,99.06506951871657)"><svg viewBox="0 0 316.416 49.06986096256685" height="49.06986096256685" width="316.416"><g><svg viewBox="0 0 316.416 49.06986096256685" height="49.06986096256685" width="316.416"><g><svg viewBox="0 0 316.416 49.06986096256685" height="49.06986096256685" width="316.416"><g id="textblocktransform"><svg viewBox="0 0 316.416 49.06986096256685" height="49.06986096256685" width="316.416" id="textblock"><g><svg viewBox="0 0 316.416 49.06986096256685" height="49.06986096256685" width="316.416"><g transform="matrix(1,0,0,1,0,0)"><svg width="316.416" viewBox="3.6500000953674316 -34.349998474121094 220.3400115966797 34.79999923706055" height="49.06986096256685" data-palette-color="#176331"><g class="undefined-text-0" data-fill-palette-color="primary" id="text-0"><path d="M8.8-14.1L8.8 0 3.65 0 3.65-33.7 9.75-33.7 18.05-19.6Q20.35-15.65 22.23-12.3 24.1-8.95 24.8-7.6L24.8-7.6 25.5-6.2Q25.2-10.75 25.2-19.55L25.2-19.55 25.2-33.7 30.35-33.7 30.35 0 24.25 0 15.9-14.05Q13.65-17.85 11.78-21.23 9.9-24.6 9.15-26.1L9.15-26.1 8.4-27.55Q8.8-22.55 8.8-14.1L8.8-14.1ZM49.6-16.7L62.7 0 56.2 0 43.45-16.65 55.7-33.7 61.95-33.7 49.6-16.7ZM42.8-33.7L42.8 0 37.65 0 37.65-33.7 42.8-33.7ZM93.05-29.63Q97.2-24.9 97.2-17 97.2-9.1 93.02-4.35 88.85 0.4 81.75 0.4L81.75 0.4Q74.7 0.4 70.47-4.35 66.25-9.1 66.25-17L66.25-17Q66.25-24.85 70.45-29.6 74.65-34.35 81.7-34.35L81.7-34.35Q88.9-34.35 93.05-29.63ZM74.32-26.18Q71.65-22.8 71.65-17 71.65-11.2 74.4-7.8 77.15-4.4 81.75-4.4L81.75-4.4Q86.5-4.4 89.15-7.75 91.8-11.1 91.8-17L91.8-17Q91.8-22.85 89.12-26.2 86.45-29.55 81.7-29.55L81.7-29.55Q77-29.55 74.32-26.18ZM123.09-9.2L123.09-9.2Q123.09-4.75 119.94-2.2 116.79 0.35 111.79 0.35L111.79 0.35Q106.24 0.35 102.59-1.8L102.59-1.8 102.59-7.15Q106.54-4.2 111.74-4.2L111.74-4.2Q114.49-4.2 116.09-5.48 117.69-6.75 117.69-9L117.69-9Q117.69-10.35 116.74-11.48 115.79-12.6 114.69-13.18 113.59-13.75 111.39-14.75L111.39-14.75Q110.09-15.35 109.57-15.6 109.04-15.85 107.84-16.5 106.64-17.15 106.07-17.6 105.49-18.05 104.64-18.85 103.79-19.65 103.42-20.45 103.04-21.25 102.72-22.33 102.39-23.4 102.39-24.65L102.39-24.65Q102.39-28.95 105.52-31.45 108.64-33.95 113.59-33.95L113.59-33.95Q118.14-33.95 121.34-32.35L121.34-32.35 121.34-27.25Q117.99-29.35 113.74-29.35L113.74-29.35Q110.99-29.35 109.42-28.13 107.84-26.9 107.84-24.9 107.84-22.9 109.39-21.7 110.94-20.5 114.14-19.1L114.14-19.1Q116.24-18.2 117.42-17.55 118.59-16.9 120.12-15.73 121.64-14.55 122.37-12.93 123.09-11.3 123.09-9.2ZM134.69-33.7L134.69 0 129.59 0 129.59-33.7 134.69-33.7Z" fill="#176331" data-fill-palette-color="primary"></path><path d="M163.79-33.7L163.79 0 158.64 0 158.64-14.75 143.49-14.75 143.49 0 138.34 0 138.34-33.7 143.49-33.7 143.49-19.2 158.64-19.2 158.64-33.7 163.79-33.7ZM196.54-33.7L196.54-12.9Q196.54-6.35 193.14-2.95 189.74 0.45 183.74 0.45L183.74 0.45Q177.84 0.45 174.44-2.88 171.04-6.2 171.04-12.5L171.04-12.5 171.04-33.7 176.19-33.7 176.19-12.55Q176.19-8.25 178.26-6.28 180.34-4.3 183.74-4.3L183.74-4.3Q191.39-4.3 191.39-12.8L191.39-12.8 191.39-33.7 196.54-33.7ZM223.99-33.7L223.99-29.4 215.14-29.4 215.14 0 209.99 0 209.99-29.4 201.19-29.4 201.19-33.7 223.99-33.7Z" fill="#8abe53" data-fill-palette-color="secondary"></path></g></svg></g></svg></g></svg></g></svg></g></svg></g></svg></g><g mask="url(#b2e5390a-a824-4236-8cf0-1611935ba33a)"><g transform="matrix(3.7229919279785055, 0, 0, 3.7229919279785055, 79.8249453567168, 1)"><svg xmlns="http://www.w3.org/2000/svg" xmlns:xlink="http://www.w3.org/1999/xlink" version="1.1" x="0" y="0" viewBox="18.322998046875 17.068994522094727 63.35498809814453 65.86100769042969" enable-background="new 0 0 100 100" xml:space="preserve" height="65.86100769042969" width="63.35498809814453" class="icon-none" data-fill-palette-color="accent" id="none"><g fill="#8abe53" data-fill-palette-color="accent"><path d="M41.086 21.513c0.172-0.39 0.271-0.819 0.271-1.273 0-1.748-1.422-3.17-3.17-3.17s-3.17 1.422-3.17 3.17 1.422 3.17 3.17 3.17c0.375 0 0.73-0.077 1.064-0.197l24.309 26.045-13.675 27.35c-0.06-0.003-0.117-0.018-0.178-0.018-1.748 0-3.17 1.422-3.17 3.17s1.422 3.17 3.17 3.17c1.748 0 3.17-1.422 3.17-3.17 0-0.777-0.292-1.479-0.757-2.031l14.064-28.13c0.233-0.467 0.152-1.03-0.204-1.412L41.086 21.513z" fill="#8abe53" data-fill-palette-color="accent"></path><path d="M58.506 49.599c0.24-0.481 0.146-1.062-0.234-1.442L31.527 21.412c0.146-0.363 0.23-0.757 0.23-1.172 0-1.748-1.422-3.17-3.17-3.17s-3.17 1.422-3.17 3.17 1.422 3.17 3.17 3.17c0.415 0 0.808-0.085 1.171-0.23l14.67 14.67c-0.029 0.024-0.065 0.034-0.092 0.061L31.114 51.134l-6.682-6.682c0.145-0.363 0.23-0.757 0.23-1.172 0-1.748-1.422-3.17-3.169-3.17-1.748 0-3.17 1.422-3.17 3.17 0 1.748 1.422 3.17 3.17 3.17 0.414 0 0.808-0.085 1.171-0.23l6.683 6.682-7.089 7.089c-0.088 0.088-0.142 0.193-0.198 0.297-0.287 0.229-0.482 0.566-0.482 0.962v6.018c-0.365 0.149-0.705 0.363-0.992 0.65-1.235 1.236-1.235 3.247 0 4.483 0.599 0.599 1.395 0.929 2.242 0.929s1.643-0.33 2.241-0.929c0.599-0.599 0.929-1.395 0.929-2.241s-0.33-1.643-0.929-2.242c-0.287-0.287-0.626-0.501-0.991-0.65v-5.562l22.028-22.028c0.027-0.027 0.037-0.063 0.061-0.092L48.9 42.32 27.704 63.516c-0.008 0.008-0.01 0.019-0.018 0.027-0.104 0.11-0.192 0.236-0.251 0.379-0.063 0.153-0.097 0.315-0.097 0.479v10.548c-0.365 0.149-0.705 0.363-0.992 0.65-1.236 1.235-1.236 3.247 0 4.483 0.599 0.599 1.395 0.928 2.242 0.928 0.847 0 1.643-0.329 2.241-0.928 1.236-1.236 1.236-3.247 0-4.483-0.287-0.287-0.626-0.501-0.991-0.65V64.917l20.83-20.83 5.199 5.199L42.206 76.608c-0.061-0.003-0.118-0.018-0.179-0.018-1.748 0-3.17 1.422-3.17 3.17s1.422 3.17 3.17 3.17c1.748 0 3.17-1.422 3.17-3.17 0-0.777-0.292-1.479-0.757-2.031L58.506 49.599z" fill="#8abe53" data-fill-palette-color="accent"></path><path d="M78.508 74.67c-0.257 0-0.503 0.039-0.742 0.097l-3.768-5.023V49.04c0-0.313-0.118-0.614-0.329-0.845l-8.208-8.954 6.114-6.114c0.363 0.146 0.757 0.231 1.172 0.231 1.748 0 3.169-1.422 3.169-3.17 0-1.748-1.422-3.17-3.169-3.17-1.748 0-3.17 1.422-3.17 3.17 0 0.415 0.085 0.808 0.23 1.171l-6.038 6.037-3.066-3.345 10.872-10.872c0.363 0.145 0.757 0.23 1.172 0.23 1.748 0 3.169-1.422 3.169-3.17s-1.422-3.17-3.169-3.17c-1.748 0-3.17 1.422-3.17 3.17 0 0.415 0.085 0.809 0.23 1.172L59.013 32.207l-6.135-6.693V23.15c1.127-0.486 1.92-1.607 1.92-2.911 0-1.748-1.422-3.17-3.17-3.17-1.748 0-3.17 1.422-3.17 3.17 0 1.304 0.792 2.425 1.92 2.911V26c0 0.061 0.026 0.114 0.035 0.172 0.014 0.095 0.021 0.189 0.057 0.279 0.033 0.086 0.088 0.156 0.139 0.231 0.035 0.053 0.053 0.114 0.098 0.162l20.792 22.682V70.16c0 0.271 0.087 0.534 0.25 0.75l4.021 5.362c-0.267 0.464-0.432 0.995-0.432 1.568 0 1.748 1.422 3.17 3.17 3.17 1.748 0 3.17-1.422 3.17-3.17S80.255 74.67 78.508 74.67z" fill="#8abe53" data-fill-palette-color="accent"></path></g></svg></g></g></svg></g><defs><mask id="b2e5390a-a824-4236-8cf0-1611935ba33a"><rect width="640" height="400" fill="white"></rect><rect width="348.05760000000004" height="72.23829395576472" fill="black" y="87.48085302211763" x="23.731199999999973" id="transform-me"></rect></mask></defs></svg><rect width="395.52" height="247.2" fill="none" stroke="none" visibility="hidden"></rect></g></svg></g></svg>